<?xml version="1.0" encoding="utf-8"?>

<!DOCTYPE svg PUBLIC "-//W3C//DTD SVG 1.1//EN" "http://www.w3.org/Graphics/SVG/1.1/DTD/svg11.dtd">
<!-- Uploaded to: SVG Repo, www.svgrepo.com, Generator: SVG Repo Mixer Tools -->
<svg width="26" height="26" viewBox="0 0 26 26" fill="none" xmlns="http://www.w3.org/2000/svg">
<path d="M13 2.16602C7.02002 2.16602 2.16602 7.02002 2.16602 13C2.16602 18.98 7.02002 23.834 13 23.834C18.98 23.834 23.834 18.98 23.834 13C23.834 7.02002 18.98 2.16602 13 2.16602ZM13 6.49805C15.2933 6.49805 17.166 8.37072 17.166 10.6641C17.166 12.9574 15.2933 14.8301 13 14.8301C10.7067 14.8301 8.83398 12.9574 8.83398 10.6641C8.83398 8.37072 10.7067 6.49805 13 6.49805ZM13 21.666C10.3333 21.666 7.91667 20.416 6.33333 18.416C6.36667 16.416 10.8333 15.332 13 15.332C15.15 15.332 19.6333 16.416 19.6667 18.416C18.0833 20.416 15.6667 21.666 13 21.666Z" fill="white"/>
</svg>